HIERARCHY
ROOT Hips
{
	OFFSET 0.00000 0.00000 0.00000
	CHANNELS 6 Xposition Yposition Zposition Zrotation Yrotation Xrotation 
	JOINT LHipJoint
	{
		OFFSET 0 0 0
		CHANNELS 3 Zrotation Yrotation Xrotation
		JOINT LeftHip
		{
			OFFSET 1.58895 -1.83665 0.71753
			CHANNELS 3 Zrotation Yrotation Xrotation
			JOINT LeftKnee
			{
				OFFSET 2.50528 -6.88321 0.00000
				CHANNELS 3 Zrotation Yrotation Xrotation
				JOINT LeftAnkle
				{
					OFFSET 2.63244 -7.23257 0.00000
					CHANNELS 3 Zrotation Yrotation Xrotation
					JOINT LeftToe
					{
						OFFSET 0.23691 -0.65090 1.72750
						CHANNELS 3 Zrotation Yrotation Xrotation
						End Site
						{
							OFFSET 0.00000 -0.00000 0.92561
						}
					}
				}
			}
		}
	}
	JOINT RHipJoint
	{
		OFFSET 0 0 0
		CHANNELS 3 Zrotation Yrotation Xrotation
		JOINT RightHip
		{
			OFFSET -1.51435 -1.83665 0.71753
			CHANNELS 3 Zrotation Yrotation Xrotation
			JOINT RightKnee
			{
				OFFSET -2.54551 -6.99375 0.00000
				CHANNELS 3 Zrotation Yrotation Xrotation
				JOINT RightAnkle
				{
					OFFSET -2.66027 -7.30903 0.00000
					CHANNELS 3 Zrotation Yrotation Xrotation
					JOINT RightToe
					{
						OFFSET -0.22981 -0.63138 2.03959
						CHANNELS 3 Zrotation Yrotation Xrotation
						End Site
						{
							OFFSET -0.00000 -0.00000 1.07060
						}
					}
				}
			}
		}
	}
	JOINT lowerback
	{
		OFFSET 0 0 0
		CHANNELS 3 Zrotation Yrotation Xrotation
		JOINT Chest
		{
			OFFSET -0.02651 1.86275 -0.11152
			CHANNELS 3 Zrotation Yrotation Xrotation
			JOINT Chest2
			{
				OFFSET 0.01019 1.86224 0.04087
				CHANNELS 3 Zrotation Yrotation Xrotation
				JOINT lowerneck
				{
					OFFSET 0 0 0
					CHANNELS 3 Zrotation Yrotation Xrotation
					JOINT Neck
					{
						OFFSET -0.01926 1.80512 0.08867
						CHANNELS 3 Zrotation Yrotation Xrotation
						JOINT Head
						{
							OFFSET 0.05516 1.76451 -0.38475
							CHANNELS 3 Zrotation Yrotation Xrotation
							End Site
							{
								OFFSET 0.01592 1.82587 -0.14001
							}
						}
					}
				}
				JOINT LeftCollar
				{
					OFFSET 0 0 0
					CHANNELS 3 Zrotation Yrotation Xrotation
					JOINT LeftShoulder
					{
						OFFSET 3.47116 1.51376 0.14491
CHANNELS 3 Zrotation Xrotation Yrotation
						JOINT LeftElbow
						{
OFFSET 0 -4.780950 0.000000
CHANNELS 3 Zrotation Xrotation Yrotation
							JOINT LeftWrist
							{
OFFSET 0 -3.586150 -0.000000
CHANNELS 3 Zrotation Xrotation Yrotation
								JOINT lhand
								{
									OFFSET 0 0 0
CHANNELS 3 Zrotation Xrotation Yrotation
									JOINT LFingers
									{
OFFSET 0 -0.659810 0.000000
CHANNELS 3 Zrotation Xrotation Yrotation
										End Site
										{
OFFSET 0 -0.531960 0.000000
										}
									}
								}
								JOINT LThumb
								{
OFFSET 0 0.000000 0.000000
CHANNELS 3 Zrotation Xrotation Yrotation
									End Site
									{
OFFSET 0 -0.540080 0.540080
									}
								}
							}
						}
					}
				}
				JOINT RightCollar
				{
					OFFSET 0 0 0
					CHANNELS 3 Zrotation Yrotation Xrotation
					JOINT RightShoulder
					{
						OFFSET -3.31725 1.61216 0.35156
CHANNELS 3 Zrotation Xrotation Yrotation
						JOINT RightElbow
						{
OFFSET 0 -4.489130 0.000000
CHANNELS 3 Zrotation Xrotation Yrotation
							JOINT RightWrist
							{
OFFSET 0 -3.705100 0.000000
CHANNELS 3 Zrotation Xrotation Yrotation
								JOINT rhand
								{
									OFFSET 0 0 0
CHANNELS 3 Zrotation Xrotation Yrotation
									JOINT RFingers
									{
OFFSET 0 -0.449140 0.000000
CHANNELS 3 Zrotation Xrotation Yrotation
										End Site
										{
OFFSET 0 -0.362110 0.000000
										}
									}
								}
								JOINT RThumb
								{
OFFSET 0 0.000000 0.000000
CHANNELS 3 Zrotation Xrotation Yrotation
									End Site
									{
OFFSET 0 -0.367630 0.367630
									}
								}
							}
						}
					}
				}
			}
		}
	}
}
MOTION
Frames: 11
Frame Time: 0.008333333333333333
-0.705500 18.658500 6.011700 -2.573800 -2.053300 0.447800 0.000000 0.000000 0.000000 -11.751700 -5.775000 -1.689900 1.398200 7.480400 21.146600 1.482300 2.582900 -24.055400 8.421100 -16.420400 -54.065600 0.000000 0.000000 0.000000 16.765200 1.985200 10.109100 0.000000 0.000000 -0.000000 -1.085600 -7.257300 -23.566800 -0.122500 2.256000 -6.213700 -0.470400 0.577400 5.089500 0.634000 0.761900 -0.496900 0.856600 0.393500 -3.380800 -0.176700 -0.421200 -10.106600 1.607400 -0.890700 20.161800 0.473400 -0.284900 7.894600 0.000000 -0.000000 0.000000 -0.822900 11.677500 -35.349600 22.177000 -33.176500 6.682400 9.628000 -6.942900 20.853600 0.000000 0.000000 0.000000 -7.125000 0.000000 0.000000 -12.057800 9.222800 -10.204100 0.000000 -0.000000 0.000000 -2.091400 14.875800 35.496200 -22.699600 -33.758700 -6.970600 -9.133600 20.523600 29.448700 0.000000 0.000000 0.000000 7.125000 0.000000 -0.000000 24.328900 58.042100 -8.076100
-0.706254 18.660020 6.014638 -2.602482 -2.063044 0.523645 0.000000 0.000000 0.000000 -11.717516 -5.827920 -1.748678 1.399492 7.483530 21.156071 1.482775 2.615394 -24.074084 8.416021 -16.416905 -54.047760 0.000000 0.000000 0.000000 16.800108 2.017269 10.036202 0.000000 0.000000 0.000000 -1.083316 -7.265230 -23.553465 -0.125234 2.281046 -6.283014 -0.214228 0.643953 5.447067 0.485619 0.862858 -0.820514 0.545854 0.438813 -3.912644 -0.030711 -0.514058 -9.855843 1.585666 -1.042243 20.273693 0.427771 -0.348494 7.887100 0.000000 0.000000 0.000000 -0.493934 12.144559 -35.706262 22.255492 -33.264598 6.725473 9.625298 -7.075298 20.660152 0.000000 0.000000 0.000000 -7.125000 0.000000 0.000000 -12.058401 9.413776 -10.157299 0.000000 0.000000 0.000000 -1.778420 15.371544 35.226651 -22.745771 -33.809680 -6.996331 -9.159860 20.543124 29.667018 0.000000 0.000000 0.000000 7.125000 0.000000 0.000000 24.469551 58.244898 -8.247695
-0.705920 18.660636 6.016823 -2.609473 -2.024015 0.574792 0.000000 0.000000 0.000000 -11.695301 -5.828157 -1.822739 1.401212 7.487979 21.169309 1.481644 2.606545 -24.061536 8.426407 -16.424094 -54.084545 0.000000 0.000000 0.000000 16.805208 1.988968 9.991382 0.000000 0.000000 0.000000 -1.086062 -7.260760 -23.573092 -0.119946 2.232500 -6.148729 -0.309169 0.585425 5.065362 0.546998 0.780161 -0.595234 0.674756 0.399185 -3.465721 0.012477 -0.480980 -10.100430 1.462331 -0.978627 20.194155 0.385298 -0.326145 7.903693 0.000000 0.000000 0.000000 -0.556817 11.737885 -35.629367 22.144101 -33.139496 6.664420 9.685475 -7.239231 21.255672 0.000000 0.000000 0.000000 -7.125000 0.000000 0.000000 -12.024616 8.820980 -10.273453 0.000000 0.000000 0.000000 -1.938005 14.955722 35.472196 -22.716701 -33.777568 -6.980148 -9.211642 20.495773 29.805139 0.000000 0.000000 0.000000 7.125000 0.000000 0.000000 24.524046 58.380772 -8.348701
-0.706179 18.660008 6.020410 -2.629121 -1.996332 0.583274 0.000000 0.000000 0.000000 -11.656991 -5.764049 -1.859159 1.402475 7.491180 21.178995 1.474764 2.547171 -23.981279 8.437079 -16.431494 -54.122067 0.000000 0.000000 0.000000 16.825404 1.958040 9.994031 0.000000 0.000000 0.000000 -1.092204 -7.203419 -23.583753 -0.115560 2.191639 -6.035679 -0.132626 0.631979 5.449785 0.450251 0.851394 -0.873936 0.464171 0.430981 -3.967671 0.037498 -0.563157 -10.042804 1.555874 -1.121956 20.518086 0.398609 -0.381403 8.002678 0.000000 0.000000 0.000000 -0.320804 12.169380 -35.879338 22.176874 -33.176343 6.682365 9.659939 -7.152478 21.395714 0.000000 0.000000 0.000000 -7.125000 0.000000 0.000000 -12.042056 8.685370 -10.322287 0.000000 0.000000 0.000000 -1.793524 15.380188 35.434192 -22.738167 -33.801213 -6.992084 -9.489551 20.521884 29.682919 0.000000 0.000000 0.000000 7.125000 0.000000 0.000000 24.148288 58.331123 -8.181696
-0.705800 18.660100 6.023151 -2.609157 -1.973928 0.551073 0.000000 0.000000 0.000000 -11.684120 -5.786222 -1.818457 1.402944 7.492533 21.183042 1.475610 2.505942 -23.969427 8.406508 -16.410251 -54.014062 0.000000 0.000000 0.000000 16.799508 1.922758 10.031394 0.000000 0.000000 0.000000 -1.098135 -7.159621 -23.601767 -0.111431 2.152537 -5.927327 -0.164688 0.633851 5.586416 0.447571 0.851911 -0.932346 0.477494 0.432196 -4.105796 0.029622 -0.587193 -10.045659 1.605282 -1.165958 20.603393 0.412098 -0.397549 8.032398 0.000000 0.000000 0.000000 -0.282950 12.266810 -35.987893 22.317251 -33.333646 6.759386 9.457188 -6.951468 20.912718 0.000000 0.000000 0.000000 -7.125000 0.000000 0.000000 -12.166303 9.180320 -10.310720 0.000000 0.000000 0.000000 -1.809455 15.429668 35.445200 -22.737467 -33.800467 -6.991684 -9.318925 20.437300 29.699561 0.000000 0.000000 0.000000 7.125000 0.000000 0.000000 24.333760 58.308970 -8.236277
-0.704711 18.660100 6.026245 -2.615232 -1.924309 0.537405 0.000000 0.000000 0.000000 -11.679958 -5.798351 -1.793496 1.401882 7.489695 21.174384 1.474697 2.494694 -23.957652 8.400174 -16.405849 -53.991512 0.000000 0.000000 0.000000 16.802015 1.863481 10.051692 0.000000 0.000000 0.000000 -1.100531 -7.161119 -23.622461 -0.107067 2.109945 -5.809660 -0.186098 0.598312 5.583341 0.493602 0.804850 -0.934487 0.541277 0.409870 -4.106799 -0.113285 -0.602575 -10.034925 1.721630 -1.185335 20.586271 0.472701 -0.406744 8.026412 0.000000 0.000000 0.000000 -0.367744 12.269354 -35.891000 22.315069 -33.331276 6.758186 9.409017 -6.986253 21.067870 0.000000 0.000000 0.000000 -7.125000 0.000000 0.000000 -12.197619 9.031963 -10.375756 0.000000 0.000000 0.000000 -1.942629 15.416271 35.543669 -22.730709 -33.793016 -6.987923 -9.258194 20.472133 29.709128 0.000000 0.000000 0.000000 7.125000 0.000000 0.000000 24.402654 58.304356 -8.258668
-0.702982 18.659641 6.032246 -2.599624 -1.902684 0.545223 0.000000 0.000000 0.000000 -11.701260 -5.779169 -1.775568 1.399055 7.482493 21.152962 1.478887 2.465318 -23.976565 8.416152 -16.416924 -54.048069 0.000000 0.000000 0.000000 16.779282 1.834533 10.066860 0.000000 0.000000 0.000000 -1.101369 -7.158334 -23.628068 -0.111630 2.154474 -5.932660 -0.175926 0.572956 5.503733 0.495051 0.771785 -0.939506 0.540853 0.393201 -4.066573 -0.224634 -0.561742 -10.112733 1.884982 -1.145070 20.682007 0.549563 -0.379370 8.073613 0.000000 0.000000 0.000000 -0.372764 12.254062 -35.810078 22.194313 -33.195922 6.691916 9.544535 -7.123210 21.515227 0.000000 0.000000 0.000000 -7.125000 0.000000 0.000000 -12.115676 8.578665 -10.414746 0.000000 0.000000 0.000000 -1.985275 15.417919 35.571801 -22.757915 -33.822941 -7.003066 -9.246062 20.425837 29.900212 0.000000 0.000000 0.000000 7.125000 0.000000 0.000000 24.563326 58.473942 -8.419049
-0.700267 18.659057 6.039442 -2.513733 -1.953676 0.520392 0.000000 0.000000 0.000000 -11.823525 -5.750628 -1.700288 1.396041 7.474839 21.129916 1.482261 2.492845 -24.014833 8.410192 -16.412789 -54.027024 0.000000 0.000000 0.000000 16.671660 1.868902 10.126432 0.000000 0.000000 0.000000 -1.106910 -7.113532 -23.642377 -0.115004 2.186738 -6.022016 -0.215703 0.589623 5.470635 0.455401 0.789706 -0.953843 0.520975 0.402600 -4.062831 -0.226656 -0.574243 -10.176562 1.924971 -1.172929 20.779139 0.560542 -0.387787 8.118363 0.000000 0.000000 0.000000 -0.318937 12.299498 -35.816167 22.183934 -33.184298 6.686225 9.560956 -7.085153 21.538347 0.000000 0.000000 0.000000 -7.125000 0.000000 0.000000 -12.105674 8.554265 -10.411707 0.000000 0.000000 0.000000 -1.996112 15.421374 35.587118 -22.737831 -33.800857 -6.991879 -9.312136 20.415932 29.898216 0.000000 0.000000 0.000000 7.125000 0.000000 0.000000 24.494821 58.486682 -8.401272
-0.698665 18.656754 6.045859 -2.493701 -2.017432 0.450015 0.000000 0.000000 0.000000 -11.873934 -5.728772 -1.577259 1.395044 7.472177 21.121998 1.484985 2.567242 -24.069141 8.409131 -16.412054 -54.023270 0.000000 0.000000 0.000000 16.650743 1.904793 10.225526 0.000000 0.000000 0.000000 -1.107106 -7.122415 -23.650158 -0.116585 2.201050 -6.061703 -0.216386 0.609683 5.500641 0.468124 0.816993 -0.970063 0.531574 0.416364 -4.097144 -0.290831 -0.592339 -10.181375 1.950554 -1.192040 20.809486 0.577958 -0.399151 8.130122 0.000000 0.000000 0.000000 -0.311386 12.359611 -35.929348 22.287648 -33.300640 6.743130 9.537582 -6.873132 20.846386 0.000000 0.000000 0.000000 -7.125000 0.000000 0.000000 -12.115025 9.238368 -10.250939 0.000000 0.000000 0.000000 -2.062525 15.439748 35.578612 -22.713429 -33.773891 -6.978340 -9.393112 20.417796 29.821647 0.000000 0.000000 0.000000 7.125000 0.000000 0.000000 24.353125 58.435294 -8.318373
-0.698726 18.656600 6.047826 -2.492849 -2.020937 0.431520 0.000000 0.000000 0.000000 -11.865300 -5.697848 -1.574102 1.395953 7.474570 21.129271 1.482853 2.451268 -24.000894 8.361054 -16.378484 -53.852881 0.000000 0.000000 0.000000 16.652977 1.900071 10.251108 0.000000 0.000000 0.000000 -1.106451 -7.128910 -23.649063 -0.117127 2.206174 -6.075810 -0.210321 0.604102 5.515014 0.467685 0.810013 -0.984559 0.528156 0.412860 -4.120147 -0.250763 -0.622629 -10.274026 1.964457 -1.246981 20.892196 0.570353 -0.419596 8.175408 0.000000 0.000000 0.000000 -0.257947 12.360434 -35.885141 22.153634 -33.150259 6.669698 9.555518 -7.126899 21.536291 0.000000 0.000000 0.000000 -7.125000 0.000000 0.000000 -12.109024 8.556740 -10.414142 0.000000 0.000000 0.000000 -2.125528 15.427382 35.637414 -22.715250 -33.775954 -6.979333 -9.330846 20.266083 29.648009 0.000000 0.000000 0.000000 7.125000 0.000000 0.000000 24.282086 58.265035 -8.191294
-0.698841 18.657297 6.049715 -2.546435 -2.045382 0.479584 0.000000 0.000000 0.000000 -11.810721 -5.747198 -1.605858 1.398356 7.480650 21.147431 1.482264 2.505840 -24.020534 8.367590 -16.383105 -53.876102 0.000000 0.000000 0.000000 16.711996 1.938472 10.209299 0.000000 0.000000 0.000000 -1.111274 -7.074823 -23.651029 -0.107414 2.112978 -5.817968 -0.146718 0.613971 5.465058 0.488014 0.828492 -1.012885 0.512108 0.420845 -4.120892 -0.208313 -0.619445 -10.314199 1.953304 -1.248634 20.902558 0.559241 -0.417830 8.185988 0.000000 0.000000 0.000000 -0.142159 12.340353 -36.047529 22.255945 -33.265006 6.725728 9.273067 -6.797114 20.988331 0.000000 0.000000 0.000000 -7.125000 0.000000 0.000000 -12.283233 9.122709 -10.428977 0.000000 0.000000 0.000000 -2.145401 15.425389 35.575738 -22.725183 -33.786944 -6.984882 -9.161195 20.266874 29.678274 0.000000 0.000000 0.000000 7.125000 0.000000 0.000000 24.476902 58.255347 -8.256662
